<?xml version="1.0" standalone="no"?>
<!DOCTYPE svg PUBLIC "-//W3C//DTD SVG 20010904//EN"
 "http://www.w3.org/TR/2001/REC-SVG-20010904/DTD/svg10.dtd">
<svg version="1.0" xmlns="http://www.w3.org/2000/svg"
 width="1000.000000pt" height="580.000000pt" viewBox="0 0 1000.000000 580.000000"
 preserveAspectRatio="xMidYMid meet">
<metadata>
Created by potrace 1.16, written by Peter Selinger 2001-2019
</metadata>
<g transform="translate(0.000000,580.000000) scale(0.100000,-0.100000)"
fill="#000000" stroke="none">
<path d="M0 4864 l0 -936 96 7 c83 6 98 5 115 -11 10 -9 19 -22 19 -28 0 -6
-7 0 -16 12 -12 17 -25 22 -63 22 -26 0 -51 -3 -55 -7 -4 -4 -27 -6 -51 -4
-58 3 -60 -17 -2 -22 l42 -4 -42 -1 -43 -2 0 -50 0 -50 48 -1 c35 0 42 -3 27
-9 -11 -5 -32 -9 -47 -9 -23 -1 -28 -6 -28 -25 0 -20 6 -25 35 -28 19 -2 39 0
44 5 5 5 11 2 14 -7 5 -13 -2 -16 -43 -16 -28 0 -50 -4 -50 -10 0 -5 13 -10
30 -10 23 0 30 -5 30 -19 0 -11 6 -22 13 -24 9 -4 9 -6 0 -6 -7 -1 -13 -6 -13
-12 0 -5 5 -7 12 -3 7 4 8 3 4 -5 -4 -6 -2 -20 5 -29 12 -15 12 -15 -7 1 -11
9 -33 17 -47 17 -26 0 -27 -3 -27 -49 l0 -50 48 -3 47 -3 0 -47 c0 -25 2 -46
5 -46 3 0 24 0 48 -1 l42 -1 2 -97 2 -98 6 100 6 100 2 -97 2 -98 39 0 c36 0
40 3 44 28 4 25 4 25 3 -3 -1 -28 -4 -30 -46 -36 l-45 -6 43 -1 42 -2 2 -42 1
-43 6 45 c6 42 8 45 36 46 29 2 29 2 3 -3 -25 -4 -28 -9 -28 -44 0 -39 0 -39
40 -39 37 0 40 2 41 28 l1 27 8 -30 8 -30 1 28 c1 22 6 27 26 27 24 0 25 -2
25 -75 0 -48 4 -75 11 -75 6 0 9 -7 5 -15 -3 -8 1 -21 9 -29 8 -8 15 -26 15
-40 0 -24 -3 -26 -50 -26 l-50 0 0 -50 0 -50 -50 0 -50 0 0 50 0 50 -50 0 -50
0 0 150 0 150 -100 0 -100 0 0 -1600 0 -1600 1400 0 1400 0 0 100 0 100 28 0
c16 0 32 -8 40 -20 11 -18 23 -20 118 -20 67 0 103 4 99 10 -3 6 -2 10 4 10 5
0 11 -5 13 -12 3 -7 12 -4 27 11 18 18 31 21 78 19 l56 -3 0 -45 c0 -43 -1
-45 -31 -48 -31 -3 -32 -5 -32 -53 l0 -49 100 0 100 0 0 30 c0 17 5 30 10 30
6 0 10 -13 10 -30 l0 -30 910 0 910 0 0 30 c0 24 4 30 23 31 14 1 9 4 -13 8
l-35 7 43 5 c30 3 42 1 42 -8 0 -7 5 -13 10 -13 6 0 9 3 9 7 -4 23 3 33 21 33
16 0 21 -9 26 -50 l7 -50 2313 0 2314 0 0 1749 0 1750 -52 4 -53 3 53 2 52 2
0 39 c0 37 -2 40 -32 44 l-33 4 33 1 c32 2 32 3 32 51 0 49 -1 50 -32 54 l-33
4 33 1 32 2 0 1045 0 1045 -3394 0 -3395 0 -4 -32 -4 -33 -1 33 -2 32 -1600 0
-1600 0 0 -936z m4399 704 c-2 -30 -2 -30 -6 -6 -3 20 -11 28 -31 31 -24 4
-24 4 6 6 30 1 32 -1 31 -31z m3000 0 c-2 -30 -2 -30 -6 -6 -3 20 -11 28 -31
31 -24 4 -24 4 6 6 30 1 32 -1 31 -31z m-2064 -171 c27 -4 27 -5 -4 -3 -21 0
-36 7 -38 16 -3 10 -2 11 4 3 4 -6 22 -13 38 -16z m-2987 -4 c-33 -4 -37 -8
-41 -36 -4 -31 -4 -31 -5 6 l-2 37 43 -2 42 -1 -37 -4z m2959 -45 c-3 -7 -5
-2 -5 12 0 14 2 19 5 13 2 -7 2 -19 0 -25z m-4099 -30 c7 -7 12 -17 12 -22 0
-6 -5 -3 -11 7 -7 12 -23 17 -59 17 -36 0 -52 -5 -59 -17 -6 -10 -11 -13 -11
-7 0 21 25 34 70 34 25 0 51 -5 58 -12z m-208 -68 l0 -50 -50 0 -50 0 0 50 0
50 50 0 50 0 0 -50z m200 43 c0 -5 -22 -8 -50 -8 -27 0 -50 3 -50 8 0 4 23 7
50 7 28 0 50 -3 50 -7z m7543 0 c-26 -3 -33 -9 -36 -31 -4 -24 -4 -24 -6 6 -1
31 0 32 37 30 36 -1 36 -1 5 -5z m-7666 -45 c-3 -7 -5 -2 -5 12 0 14 2 19 5
13 2 -7 2 -19 0 -25z m150 0 c-3 -7 -5 -2 -5 12 0 14 2 19 5 13 2 -7 2 -19 0
-25z m-120 0 c-3 -8 -6 -5 -6 6 -1 11 2 17 5 13 3 -3 4 -12 1 -19z m90 0 c-3
-8 -6 -5 -6 6 -1 11 2 17 5 13 3 -3 4 -12 1 -19z m5010 -25 c-3 -10 -5 -4 -5
12 0 17 2 24 5 18 2 -7 2 -21 0 -30z m-4784 -23 l77 0 0 -45 0 -45 50 0 c45 0
50 -2 56 -25 3 -14 4 -39 2 -55 -5 -30 -4 -30 44 -30 l48 0 0 -100 0 -100 50
0 51 0 -3 -97 -3 -98 -48 -3 -49 -3 3 53 c3 53 3 53 -26 52 -20 -1 -22 0 -7 3
18 4 22 11 22 44 0 39 0 39 -39 39 -36 0 -40 -3 -44 -27 -2 -16 -4 8 -4 52 0
45 2 59 4 33 l4 -48 40 0 39 0 0 50 0 50 -82 2 -83 2 83 3 82 4 0 39 0 40 -90
0 -90 0 -1 -32 -2 -33 -7 35 c-3 19 -6 59 -6 88 1 51 0 52 -29 54 l-30 1 28 4
c24 4 27 8 27 44 0 39 0 39 -40 39 -38 0 -40 -1 -41 -32 l-2 -33 -7 35 c-7 35
-7 35 -9 -11 -1 -33 -5 -46 -16 -46 -11 0 -12 4 -4 14 9 10 6 13 -13 13 -22 0
-25 4 -20 26 3 17 -3 36 -18 57 l-23 32 25 -22 c21 -20 35 -23 101 -23z m2477
-50 l0 -50 -50 0 -50 0 0 50 0 50 50 0 50 0 0 -50z m2148 43 l-148 -4 0 -39 0
-40 294 0 295 0 4 28 c4 25 4 25 6 -5 l1 -33 -350 0 -350 0 0 43 c0 24 3 47 7
50 3 4 92 6 197 5 187 -2 188 -2 44 -5z m1910 0 l-48 -4 0 -39 0 -39 48 -4 47
-3 -52 -2 -53 -2 0 50 0 50 53 -2 52 -2 -47 -3z m-2400 -100 l-48 -4 0 -39 0
-39 48 -4 47 -3 -52 -2 -53 -2 0 43 c0 24 3 47 7 50 3 4 27 6 52 5 l46 -2 -47
-3z m1040 -40 l-3 -48 -47 -3 -48 -3 0 44 c0 24 3 47 7 50 3 4 26 7 50 7 l44
0 -3 -47z m1902 -3 l0 -50 -52 2 -53 2 48 3 47 4 0 39 0 39 -47 4 -48 3 53 2
52 2 0 -50z m-7063 -2 c-3 -7 -5 -2 -5 12 0 14 2 19 5 13 2 -7 2 -19 0 -25z
m5261 -95 l-3 -48 -47 -3 -48 -3 0 44 c0 24 3 47 7 50 3 4 26 7 50 7 l44 0 -3
-47z m1609 -20 c-2 -16 -4 -5 -4 22 0 28 2 40 4 28 2 -13 2 -35 0 -50z m93
-38 l0 -95 -52 2 -53 2 48 3 47 4 0 90 c0 49 2 89 5 89 3 0 5 -43 5 -95z
m-7226 -1 c3 -8 2 -12 -4 -9 -6 3 -10 10 -10 16 0 14 7 11 14 -7z m5579 -1
c-43 -4 -43 -5 -43 -43 0 -38 0 -39 43 -43 l42 -4 -47 -1 -48 -2 0 43 c0 24 3
47 7 50 3 4 25 6 47 5 l41 -1 -42 -4z m-5507 -33 c9 0 14 -11 14 -30 0 -27 -3
-30 -30 -30 -28 0 -30 3 -30 36 0 29 3 35 16 30 9 -3 22 -6 30 -6z m5687 -61
c31 -2 31 -2 5 -6 -25 -4 -28 -8 -28 -44 0 -39 0 -39 39 -39 36 0 40 3 44 28
4 25 4 25 6 -5 l1 -33 -50 0 -50 0 0 44 c0 24 -2 50 -3 58 -2 7 -2 10 0 6 3
-5 19 -9 36 -9z m-1833 -49 l0 -50 -192 2 -193 3 188 2 187 3 0 40 0 40 -189
0 -190 0 -4 -37 -4 -38 -1 43 -2 42 200 0 200 0 0 -50z m-2050 -240 l39 0 4
98 3 97 2 -102 2 -103 -50 0 -50 0 2 103 2 102 3 -97 4 -98 39 0z m5748 -157
l-3 -248 -2 242 -3 242 -28 4 c-25 4 -24 4 6 6 l32 1 -2 -247z m-40 -346 l47
-4 -50 1 -50 1 0 275 0 275 2 -272 3 -272 48 -4z m-7058 483 c0 -5 -2 -10 -4
-10 -3 0 -8 5 -11 10 -3 6 -1 10 4 10 6 0 11 -4 11 -10z m3157 4 c-3 -3 -12
-4 -19 -1 -8 3 -5 6 6 6 11 1 17 -2 13 -5z m-3057 -144 l0 -50 -32 1 c-31 2
-31 2 -5 6 24 4 27 8 27 43 0 35 -3 39 -27 43 -26 4 -26 4 5 6 l32 1 0 -50z
m6400 0 l0 -50 -32 1 c-31 2 -31 2 -5 6 24 4 27 8 27 43 0 35 -3 39 -27 43
-26 4 -26 4 5 6 l32 1 0 -50z m-6912 -157 l-78 -4 0 -39 c0 -38 0 -39 43 -43
l42 -4 -47 -1 -48 -2 0 50 0 50 83 -2 82 -2 -77 -3z m5850 0 c-25 -4 -28 -8
-28 -43 0 -35 3 -39 28 -43 25 -4 25 -4 -5 -6 l-33 -1 0 50 0 50 33 -1 c30 -2
30 -2 5 -6z m-5788 -383 l39 0 4 133 3 132 2 -137 2 -138 -50 0 -50 0 2 148 2
147 3 -142 4 -143 39 0z m7350 -11 l0 -200 -47 3 -48 3 -3 198 -2 197 50 0 50
0 0 -201z m-8500 86 c0 -8 -9 -15 -20 -15 -11 0 -20 5 -20 11 0 7 -12 10 -30
7 -16 -3 -30 -1 -30 4 0 4 23 8 50 8 38 0 50 -4 50 -15z m3438 8 c-25 -4 -28
-8 -28 -44 0 -39 0 -39 39 -39 36 0 40 3 44 28 4 25 4 25 6 -5 l1 -33 -50 0
-50 0 0 50 0 50 33 -1 c30 -2 30 -2 5 -6z m6063 -37 c2 -24 1 -42 -3 -39 -5 2
-8 20 -8 39 0 33 -1 34 -40 34 l-40 0 0 -45 0 -45 38 -2 37 -1 -37 -4 c-37 -4
-38 -6 -38 -43 0 -35 3 -39 28 -43 25 -4 25 -4 -5 -6 l-33 -1 0 100 0 100 49
0 49 0 3 -44z m-9614 8 c-3 -3 -12 -4 -19 -1 -8 3 -5 6 6 6 11 1 17 -2 13 -5z
m153 -14 c0 -15 7 -20 28 -20 26 0 52 -15 52 -30 0 -4 -7 -7 -15 -7 -8 0 -12
4 -9 9 3 4 0 8 -6 8 -18 0 -6 -24 18 -35 27 -12 28 -31 3 -38 -13 -3 -21 1
-24 12 -2 10 -4 9 -3 -4 1 -12 7 -19 16 -17 11 3 12 0 4 -8 -7 -6 -22 -8 -39
-4 -20 5 -23 9 -13 15 10 6 10 9 1 9 -20 0 -15 40 5 41 15 1 15 2 1 6 -10 2
-20 19 -23 38 -4 18 -12 36 -19 38 -7 3 -4 6 6 6 11 1 17 -6 17 -19z m-40 -40
c0 -5 -7 -7 -15 -4 -8 4 -12 10 -9 15 6 11 24 2 24 -11z m26 -32 c4 -7 3 -8
-5 -4 -12 8 -32 -32 -24 -49 2 -5 -5 1 -16 14 -26 29 -27 41 -2 34 10 -3 22 0
25 6 9 14 13 14 22 -1z m-86 -7 c0 -6 -9 -9 -19 -8 -11 0 -17 5 -15 9 7 11 34
10 34 -1z m4898 -664 c25 -4 25 -4 -5 -6 l-33 -1 2 343 3 342 2 -337 3 -337
28 -4z m-1100 600 c24 -4 24 -4 -5 -6 -31 -1 -33 1 -32 32 2 29 2 29 6 5 3
-20 11 -28 31 -31z m962 23 c0 -27 -3 -30 -30 -30 -27 0 -30 3 -30 30 0 27 3
30 30 30 27 0 30 -3 30 -30z m-3440 -41 c0 -5 -9 -9 -20 -9 -16 0 -20 -7 -20
-30 0 -23 4 -30 20 -30 11 0 20 -4 20 -9 0 -11 -60 -20 -61 -9 0 4 -1 26 -1
48 0 22 1 44 1 48 1 11 61 2 61 -9z m-1153 -1 c-2 -8 -22 -13 -48 -13 -58 0
-72 -10 -65 -45 5 -27 3 -28 -40 -32 -25 -2 -49 -1 -53 2 -4 3 -7 24 -7 47 l1
43 40 -1 c31 0 36 -2 20 -9 -11 -5 -14 -9 -7 -9 6 -1 13 -11 13 -23 l2 -23 4
23 c2 12 12 22 21 23 12 0 13 2 3 6 -25 10 11 23 67 23 39 0 52 -4 49 -12z
m91 -30 c-3 -32 -8 -44 -22 -46 -14 -3 -17 0 -13 12 4 10 1 16 -8 16 -9 0 -15
10 -15 24 0 13 -6 27 -12 29 -7 3 6 6 30 6 l43 1 -3 -42z m4799 -15 c-3 -10
-5 -2 -5 17 0 19 2 27 5 18 2 -10 2 -26 0 -35z m-4867 7 c0 -11 0 -23 0 -27 0
-5 -5 -10 -11 -12 -8 -2 -10 5 -5 23 4 15 2 26 -4 26 -5 0 -10 -7 -10 -17 0
-9 -3 -14 -6 -10 -11 10 4 37 21 37 8 0 15 -9 15 -20z m4816 -48 c-21 -2 -42
0 -47 5 -4 4 13 6 39 3 l47 -5 -39 -3z m-4646 -32 c0 -27 -3 -30 -30 -30 -23
0 -30 4 -30 20 0 12 -7 20 -17 21 -29 1 16 17 50 18 24 1 27 -3 27 -29z m4398
-7 c-1 -37 -1 -37 -5 -6 -3 26 -9 33 -31 36 -24 4 -24 4 6 6 31 1 32 0 30 -36z
m3702 -163 l0 -200 -50 0 -50 0 2 183 3 182 2 -177 3 -178 40 0 40 0 0 189 0
190 -27 4 c-26 4 -26 4 5 6 l32 1 0 -200z m-3503 -77 c-1 -49 -3 -9 -3 87 0
96 2 136 3 88 2 -49 2 -127 0 -175z m-4940 233 c0 -1 3 -12 5 -25 2 -21 -2
-26 -29 -32 -18 -3 -34 -5 -36 -3 -2 2 -1 19 1 39 4 32 6 34 31 29 14 -4 27
-7 28 -8z m374 -33 c13 -16 12 -17 -3 -4 -10 7 -18 15 -18 17 0 8 8 3 21 -13z
m-31 3 c0 -3 -4 -8 -10 -11 -5 -3 -10 -1 -10 4 0 6 5 11 10 11 6 0 10 -2 10
-4z m1004 -14 c3 -5 -16 -9 -42 -11 -26 -1 -51 -6 -55 -10 -5 -5 -7 -26 -5
-47 l3 -39 45 0 c45 0 45 0 51 40 l6 40 2 -37 c1 -34 4 -38 29 -39 l27 -1 -30
-7 c-28 -6 -30 -9 -30 -51 0 -42 2 -45 28 -48 25 -3 27 -6 27 -53 0 -48 -1
-49 -30 -49 -29 0 -30 2 -31 45 -1 25 -3 50 -4 55 -1 6 -3 28 -4 50 l-1 40
-44 0 c-48 0 -56 9 -56 63 0 46 10 55 60 60 25 2 46 4 47 5 1 1 4 -2 7 -6z
m8379 -9 c-7 -2 -21 -2 -30 0 -10 3 -4 5 12 5 17 0 24 -2 18 -5z m-9283 -33
c0 -27 -3 -30 -30 -30 -27 0 -30 3 -30 30 0 27 3 30 30 30 27 0 30 -3 30 -30z
m5800 -20 l0 -50 -47 2 -48 1 43 4 c42 4 42 5 42 43 0 38 0 39 -42 43 l-43 4
48 1 47 2 0 -50z m-6193 -27 c-3 -10 -5 -4 -5 12 0 17 2 24 5 18 2 -7 2 -21 0
-30z m421 -8 c-3 -3 -9 2 -12 12 -6 14 -5 15 5 6 7 -7 10 -15 7 -18z m173 -20
c0 -5 1 -28 2 -50 l2 -40 48 0 c26 0 47 -4 48 -10 0 -5 1 -26 2 -45 2 -34 3
-35 47 -38 51 -4 60 -13 60 -64 l0 -38 44 0 c49 0 57 -10 54 -68 -1 -36 -1
-36 -7 8 l-6 45 -45 0 c-42 0 -45 -2 -51 -30 -7 -30 -7 -30 -8 -3 -1 22 -6 27
-33 31 -27 3 -26 4 7 3 l40 -1 -4 45 c-1 25 -5 49 -8 53 -3 5 -24 7 -47 6 -23
-2 -47 1 -54 5 -7 4 -25 6 -40 4 -17 -2 -26 2 -25 10 2 6 -3 11 -10 10 -7 -2
-11 5 -9 16 2 10 1 29 -2 42 -6 21 -12 24 -55 24 l-49 0 -4 39 c-2 22 -2 43
-1 48 4 12 103 10 104 -2z m5499 -50 c0 -44 0 -45 -32 -44 -31 2 -31 2 -5 6
24 4 27 8 27 44 0 21 2 39 5 39 3 0 5 -20 5 -45z m-5960 -41 c0 -2 -7 -4 -15
-4 -8 0 -15 4 -15 10 0 5 7 7 15 4 8 -4 15 -8 15 -10z m1720 -54 c0 -65 -17
-65 -22 0 -2 35 1 50 10 50 8 0 12 -17 12 -50z m7139 18 c-2 -31 -2 -31 -6 -5
-4 24 -8 27 -44 27 -39 0 -39 0 -39 -39 0 -36 3 -40 28 -44 25 -4 25 -4 -5 -6
l-33 -1 0 50 0 50 50 0 50 0 -1 -32z m-8839 -33 c0 -19 -5 -25 -23 -25 -13 0
-27 -3 -32 -7 -6 -5 -7 -4 -2 2 4 5 7 19 7 32 0 18 6 23 25 23 20 0 25 -5 25
-25z m6038 -182 l-2 -148 -3 142 -4 142 -42 4 -42 4 48 1 47 2 -2 -147z m2655
140 c-43 -4 -43 -5 -43 -43 0 -35 3 -39 28 -43 25 -4 25 -4 -5 -6 l-33 -1 0
50 0 50 48 -2 47 -1 -42 -4z m-8156 -45 c-3 -7 -5 -2 -5 12 0 14 2 19 5 13 2
-7 2 -19 0 -25z m8200 0 c-3 -7 -5 -2 -5 12 0 14 2 19 5 13 2 -7 2 -19 0 -25z
m-5697 -98 l0 -50 -32 1 c-31 2 -31 2 -5 6 24 4 27 8 27 44 0 39 0 39 -39 39
-36 0 -40 -3 -44 -27 -4 -26 -4 -26 -6 5 l-1 32 50 0 50 0 0 -50z m5100 -100
l0 -150 -50 0 -50 0 2 108 2 107 3 -102 4 -103 39 0 40 0 0 139 0 140 -27 4
c-26 4 -26 4 5 6 l32 1 0 -150z m-6880 91 c0 -12 8 -21 23 -24 16 -3 13 -5
-10 -6 -28 -1 -33 -5 -39 -36 -9 -48 -1 -63 38 -68 18 -2 -5 -5 -51 -5 -63 -2
-82 -5 -74 -13 6 -6 30 -10 52 -7 l41 4 0 -43 0 -43 -50 0 -50 0 0 -43 0 -43
-41 4 c-22 3 -46 -1 -52 -7 -8 -8 27 -11 133 -11 158 0 189 -8 42 -11 l-92 -2
0 -36 0 -37 47 -3 c89 -4 58 -12 -37 -9 l-95 3 -5 40 c-5 38 -7 40 -45 44
l-40 5 40 5 c40 6 40 6 40 51 l0 45 -45 0 c-42 0 -45 -2 -51 -30 l-7 -30 -1
28 c-1 22 -6 27 -28 28 l-28 1 30 7 c28 6 30 9 30 51 l0 45 -45 0 c-43 0 -45
-1 -52 -35 l-7 -35 3 38 c2 34 0 37 -24 37 -24 1 -55 18 -58 33 -1 4 -3 19 -3
35 l-1 27 -8 -30 -8 -30 -1 27 c-1 21 -7 28 -28 31 -16 2 32 5 105 6 l132 1 1
-45 c1 -25 3 -49 4 -55 1 -5 3 -28 4 -50 l1 -40 45 0 c25 0 45 -3 45 -7 0 -5
22 -6 50 -5 l50 4 -2 101 -2 100 50 1 c46 1 49 3 52 29 4 31 22 37 22 8z
m-1100 -32 c0 -5 -8 -9 -17 -8 -11 0 -13 3 -5 6 6 2 9 10 6 15 -4 7 -2 8 4 4
7 -4 12 -11 12 -17z m37 -5 c-3 -3 -12 -4 -19 -1 -8 3 -5 6 6 6 11 1 17 -2 13
-5z m7826 -1 c-7 -2 -21 -2 -30 0 -10 3 -4 5 12 5 17 0 24 -2 18 -5z m1217 -8
c0 -8 -4 -15 -10 -15 -5 0 -7 7 -4 15 4 8 8 15 10 15 2 0 4 -7 4 -15z m-6100
-45 l0 -50 50 0 50 0 0 -49 0 -49 -52 -4 -53 -3 3 53 4 52 -44 2 -43 1 38 4
c36 4 37 5 37 44 0 39 0 39 -40 39 -37 0 -40 -2 -41 -27 -1 -18 -3 -22 -6 -10
-9 35 4 47 52 47 l45 0 0 -50z m5298 -37 l-2 -88 -3 83 -4 82 -39 0 -40 0 0
-89 0 -90 33 -4 c31 -4 31 -4 -5 -5 l-38 -2 0 100 0 100 50 0 50 0 -2 -87z
m-2460 -306 c25 -4 24 -4 -5 -6 l-33 -1 2 188 3 187 2 -182 3 -182 28 -4z
m-1225 186 c-5 -229 -10 -235 -12 -15 0 100 3 182 7 182 5 0 7 -75 5 -167z
m4401 112 c-4 -8 -8 -15 -10 -15 -2 0 -4 7 -4 15 0 8 4 15 10 15 5 0 7 -7 4
-15z m86 0 c0 -8 -2 -15 -4 -15 -2 0 -6 7 -10 15 -3 8 -1 15 4 15 6 0 10 -7
10 -15z m-4403 -157 c-2 -24 -4 -5 -4 42 0 47 2 66 4 43 2 -24 2 -62 0 -85z
m-4564 59 c14 -3 12 -4 -5 -2 -16 1 -28 -2 -28 -7 0 -4 -22 -8 -50 -8 -27 0
-50 3 -50 8 0 4 21 7 47 7 46 0 48 2 52 30 l5 30 4 -27 c2 -18 10 -28 25 -31z
m1627 24 c0 -35 -31 -48 -48 -20 -21 33 -15 49 18 49 26 0 30 -3 30 -29z
m7140 -1 c0 -27 -3 -30 -32 -29 -31 2 -31 2 -5 6 21 3 27 10 27 29 0 13 2 24
5 24 3 0 5 -13 5 -30z m-8205 -40 c3 -5 1 -10 -4 -10 -6 0 -11 5 -11 10 0 6 2
10 4 10 3 0 8 -4 11 -10z m2743 3 c-20 -3 -28 -11 -31 -31 -4 -24 -4 -24 -6 6
-1 30 1 32 32 31 29 -2 29 -2 5 -6z m2459 -115 c-2 -24 -4 -7 -4 37 0 44 2 63
4 43 2 -21 2 -57 0 -80z m-5659 29 c24 -4 24 -4 -5 -6 -33 -1 -33 -2 -33 -51
l0 -50 -150 0 -150 0 0 50 0 50 150 0 150 0 1 33 c2 29 2 29 6 5 3 -20 11 -28
31 -31z m8562 23 c0 -27 -3 -30 -32 -29 -31 2 -31 2 -5 6 21 3 27 10 27 29 0
13 2 24 5 24 3 0 5 -13 5 -30z m-5642 -37 c-42 -4 -47 -7 -51 -31 -4 -24 -4
-24 -6 6 l-1 32 53 -2 52 -2 -47 -3z m1595 0 c-7 -2 -19 -2 -25 0 -7 3 -2 5
12 5 14 0 19 -2 13 -5z m3145 -35 l-1 -43 -4 37 c-4 33 -8 37 -36 41 -31 4
-31 4 6 5 l37 2 -2 -42z m-6638 -24 c0 -30 -3 -34 -25 -34 -22 0 -25 4 -25 39
0 35 2 38 25 33 21 -4 25 -10 25 -38z m-20 -232 c19 -2 40 -8 47 -13 14 -13
25 3 17 25 -4 11 -1 16 12 15 11 0 14 -3 6 -6 -6 -2 -9 -9 -6 -14 3 -6 1 -16
-6 -23 -6 -8 -10 -30 -8 -50 2 -33 5 -36 33 -37 16 0 26 -2 20 -5 -5 -2 -43
-1 -84 4 l-75 7 1 50 1 50 -76 -1 -77 -1 73 4 72 4 2 132 2 132 6 -135 5 -135
35 -3z m3160 233 c0 -33 -2 -35 -32 -34 -31 2 -31 2 -5 6 22 4 27 9 27 34 0
16 2 29 5 29 3 0 5 -16 5 -35z m3407 -2 c-3 -10 -5 -4 -5 12 0 17 2 24 5 18 2
-7 2 -21 0 -30z m-7489 2 c-2 -26 -25 -36 -25 -10 0 8 4 12 9 9 4 -3 8 2 8 10
0 9 2 16 5 16 3 0 4 -11 3 -25z m-41 -17 c-3 -8 -6 -5 -6 6 -1 11 2 17 5 13 3
-3 4 -12 1 -19z m1523 12 c0 -5 -5 -10 -11 -10 -5 0 -7 5 -4 10 3 6 8 10 11
10 2 0 4 -4 4 -10z m-927 -7 c-7 -2 -19 -2 -25 0 -7 3 -2 5 12 5 14 0 19 -2
13 -5z m-516 -9 c-3 -3 -12 -4 -19 -1 -8 3 -5 6 6 6 11 1 17 -2 13 -5z m4403
-10 c0 -3 -15 -4 -34 -2 -19 1 -33 5 -31 8 4 7 65 1 65 -6z m-1587 -1 c-7 -2
-19 -2 -25 0 -7 3 -2 5 12 5 14 0 19 -2 13 -5z m5627 -8 c0 -8 -4 -15 -10 -15
-5 0 -7 7 -4 15 4 8 8 15 10 15 2 0 4 -7 4 -15z m-752 -2 c-34 -4 -37 -7 -41
-41 l-4 -37 -1 43 -2 42 43 -2 42 -1 -37 -4z m-6958 -43 l0 -40 -45 0 -45 0 0
40 0 40 45 0 45 0 0 -40z m17 -22 c-2 -13 -4 -3 -4 22 0 25 2 35 4 23 2 -13 2
-33 0 -45z m3543 -18 c37 0 39 1 43 38 l4 37 1 -42 2 -43 -50 0 -50 0 2 43 1
42 4 -37 c4 -37 6 -38 43 -38z m-3723 38 c-3 -8 -6 -5 -6 6 -1 11 2 17 5 13 3
-3 4 -12 1 -19z m-579 -41 c34 -3 34 -4 -9 -5 l-46 -2 6 33 c5 31 6 31 9 5 3
-23 9 -27 40 -31z m1568 6 c44 -6 46 -8 19 -13 -24 -4 -31 -11 -34 -35 -4 -29
-4 -29 -10 -5 -4 14 -17 27 -31 32 -21 6 -20 7 8 4 17 -1 32 1 32 5 0 4 -15
10 -32 12 -18 2 -26 5 -17 5 9 1 38 -1 65 -5z m5887 -14 c-6 -6 -23 -9 -39 -6
-29 4 -28 4 4 6 17 0 32 6 32 13 0 6 3 8 7 5 4 -4 2 -12 -4 -18z m997 6 c0 -8
-2 -15 -4 -15 -2 0 -6 7 -10 15 -3 8 -1 15 4 15 6 0 10 -7 10 -15z m-7727 -12
c-13 -2 -35 -2 -50 0 -16 2 -5 4 22 4 28 0 40 -2 28 -4z m6065 0 c-20 -3 -28
-11 -31 -31 -4 -24 -4 -24 -6 6 -1 30 1 32 32 31 29 -2 29 -2 5 -6z m-6788
-88 c42 0 45 2 52 30 l7 30 -3 -32 c-2 -30 0 -33 28 -34 30 -2 30 -2 4 -6
l-28 -4 0 -90 0 -89 40 0 40 0 2 78 2 77 5 -80 6 -80 45 -1 45 -1 -42 4 -43 4
0 45 c0 40 2 44 24 44 15 0 26 -7 29 -20 3 -11 12 -20 21 -20 11 0 16 -9 16
-30 0 -26 3 -30 29 -30 25 0 30 -5 35 -35 8 -43 2 -55 -30 -55 -21 0 -24 5
-26 43 l-1 42 -7 -45 -7 -45 -1 43 -2 42 -40 0 -40 0 0 -89 0 -90 43 -4 42 -4
-47 -1 -47 -2 -3 98 -3 97 -45 1 -45 1 43 -4 42 -4 0 -45 0 -44 -45 0 -45 0 0
145 0 145 -49 0 c-55 0 -62 8 -59 68 1 36 1 36 7 -8 l6 -45 45 0z m1530 55 c0
-13 -7 -20 -20 -20 -13 0 -20 7 -20 20 0 13 7 20 20 20 13 0 20 -7 20 -20z
m6020 -20 l0 -40 -49 0 c-30 0 -52 -5 -55 -12 -4 -8 -5 -7 -3 2 3 10 19 16 50
18 46 3 47 4 47 38 0 18 2 34 5 34 3 0 5 -18 5 -40z m-2562 -33 c24 -4 24 -4
-5 -6 -31 -1 -33 1 -32 32 2 29 2 29 6 5 3 -20 11 -28 31 -31z m3276 -2 c-4
-8 -8 -15 -10 -15 -2 0 -4 7 -4 15 0 8 4 15 10 15 5 0 7 -7 4 -15z m86 0 c0
-8 -2 -15 -4 -15 -2 0 -6 7 -10 15 -3 8 -1 15 4 15 6 0 10 -7 10 -15z m-6733
-11 c-3 -3 -12 -4 -19 -1 -8 3 -5 6 6 6 11 1 17 -2 13 -5z m43 2 c0 -2 -7 -6
-15 -10 -8 -3 -15 -1 -15 4 0 6 7 10 15 10 8 0 15 -2 15 -4z m43 -3 c-7 -2
-19 -2 -25 0 -7 3 -2 5 12 5 14 0 19 -2 13 -5z m1324 -15 c31 -29 29 -38 -7
-38 -27 0 -30 3 -30 30 0 36 6 37 37 8z m4326 -79 c-6 -6 -23 -9 -39 -6 -29 4
-28 4 4 6 17 0 32 6 32 13 0 6 3 8 7 5 4 -4 2 -12 -4 -18z m-6498 -9 c3 -5 24
-10 45 -10 38 0 39 -1 42 -37 2 -31 8 -39 31 -47 41 -15 81 3 85 37 3 21 9 27
28 27 20 0 24 -5 24 -32 0 -17 9 -41 19 -52 11 -12 21 -32 23 -46 2 -19 11
-27 33 -31 32 -7 32 -7 -85 -12 -33 -2 -35 -4 -35 -37 l0 -35 88 -3 87 -2 1
27 1 28 7 -30 c5 -23 13 -31 36 -36 l30 -7 -27 -1 c-26 -1 -28 -4 -28 -41 0
-40 0 -40 39 -40 36 0 40 3 44 28 4 25 4 25 6 -5 1 -33 2 -33 51 -33 49 0 50
1 50 30 0 27 3 30 30 30 25 0 30 -4 30 -25 0 -20 -5 -25 -27 -26 -25 -2 -24
-2 7 -9 27 -6 15 -8 -47 -9 l-83 -1 0 -40 0 -40 43 -2 42 -1 -45 -7 -45 -7 43
-1 42 -2 0 -39 c0 -39 -1 -40 -37 -44 l-38 -4 40 1 c40 1 40 1 46 46 l6 45 1
-42 2 -43 90 0 90 0 0 40 0 40 -42 2 -43 1 45 7 45 7 -42 1 c-39 2 -43 4 -43
27 0 25 1 25 90 25 l90 0 1 -27 1 -28 8 30 8 30 1 -27 c1 -23 6 -28 29 -29
l27 -1 -30 -8 c-28 -7 -28 -8 -5 -9 36 -2 60 -24 60 -54 0 -32 29 -50 73 -45
31 3 32 2 37 -42 l5 -45 45 -2 c25 -1 59 -2 75 -2 22 -1 33 -8 43 -28 19 -42
15 -53 -18 -53 -28 0 -30 3 -30 35 0 19 -4 35 -10 35 -5 0 -10 -22 -10 -48 0
-48 0 -48 29 -44 16 2 37 -1 48 -7 15 -9 12 -10 -19 -11 -31 0 -38 -4 -38 -20
0 -30 -18 -24 -22 8 -3 27 -4 27 -88 33 -47 3 -68 6 -47 7 l38 2 -3 43 -3 42
-215 2 c-118 2 -252 4 -298 5 l-82 3 -2 -35 c-1 -30 -2 -31 -5 -7 -3 21 -10
27 -31 28 -27 1 -27 1 3 8 27 5 30 10 31 46 l1 40 -4 -37 c-4 -33 -8 -38 -29
-38 -21 0 -24 5 -25 38 -1 20 -1 43 0 50 1 7 -4 15 -12 17 -7 3 -14 23 -16 46
l-2 41 46 -4 45 -3 0 52 0 53 -50 0 -50 0 -2 -82 -2 -83 -3 78 -4 77 -39 0
c-37 0 -40 -2 -41 -27 l-1 -28 -8 30 -8 30 -1 -27 c-1 -23 -6 -28 -26 -28 -21
0 -25 5 -25 30 l0 30 80 0 80 0 0 53 0 52 -91 -3 c-50 -2 -95 0 -100 5 -4 4
-9 29 -10 54 l-3 45 -39 0 c-27 -1 -41 4 -45 14 -3 11 -1 12 7 4 7 -6 23 -9
37 -6 19 3 24 11 24 33 0 26 -4 29 -30 29 -24 0 -30 -4 -31 -22 0 -17 -3 -14
-12 12 -10 29 -18 36 -44 38 -17 2 -37 10 -43 18 -7 8 -28 14 -46 14 -31 0
-34 3 -34 30 0 27 3 30 29 30 17 0 33 -4 36 -10z m4133 3 c-23 -4 -28 -9 -28
-32 0 -16 -3 -56 -6 -90 l-7 -61 34 -2 34 -1 -32 -4 c-26 -3 -33 -9 -36 -31
-4 -26 -4 -26 -4 3 -3 121 0 113 -35 118 -29 4 -28 4 5 3 l37 -2 0 53 0 53 33
-1 c30 -2 30 -2 5 -6z m-4031 -60 c-3 -10 -5 -2 -5 17 0 19 2 27 5 18 2 -10 2
-26 0 -35z m6390 -60 c-2 -21 -4 -4 -4 37 0 41 2 58 4 38 2 -21 2 -55 0 -75z
m-6300 55 c-3 -7 -5 -2 -5 12 0 14 2 19 5 13 2 -7 2 -19 0 -25z m3541 -21 c24
-4 24 -4 -5 -6 -31 -1 -33 1 -32 32 2 29 2 29 6 5 3 -20 11 -28 31 -31z m459
-39 c-2 -18 -4 -4 -4 32 0 36 2 50 4 33 2 -18 2 -48 0 -65z m2209 36 c-3 -9
-18 -13 -38 -12 l-33 1 33 4 c28 4 32 8 33 36 1 25 3 27 6 9 3 -13 2 -30 -1
-38z m794 26 c0 -27 -3 -30 -32 -29 -31 2 -31 2 -5 6 21 3 27 10 27 29 0 13 2
24 5 24 3 0 5 -13 5 -30z m-4447 -27 c-7 -2 -21 -2 -30 0 -10 3 -4 5 12 5 17
0 24 -2 18 -5z m-2680 -10 c-7 -2 -19 -2 -25 0 -7 3 -2 5 12 5 14 0 19 -2 13
-5z m2429 -40 c2 -23 1 -41 -2 -41 -3 1 -13 -2 -22 -6 -10 -5 -26 -5 -35 0
-15 6 -13 8 10 12 22 3 27 8 27 33 0 26 -3 29 -30 29 -26 0 -30 -4 -30 -26 0
-14 -4 -23 -9 -20 -8 6 -21 53 -15 58 1 2 25 3 52 3 l50 0 4 -42z m598 -4 l0
-50 -47 3 c-46 3 -48 4 -49 33 -1 28 -1 28 3 3 4 -25 8 -28 44 -28 39 0 39 0
39 39 0 36 -3 40 -27 44 -26 4 -26 4 5 6 l32 1 0 -51z m938 -142 c25 -4 24 -4
-5 -6 l-33 -1 2 93 2 92 3 -87 c4 -86 4 -87 31 -91z m2235 96 c-7 -2 -19 -2
-25 0 -7 3 -2 5 12 5 14 0 19 -2 13 -5z m180 0 c-7 -2 -19 -2 -25 0 -7 3 -2 5
12 5 14 0 19 -2 13 -5z m747 -8 c0 -8 -4 -15 -10 -15 -5 0 -7 7 -4 15 4 8 8
15 10 15 2 0 4 -7 4 -15z m-7732 -2 c-10 -2 -28 -2 -40 0 -13 2 -5 4 17 4 22
1 32 -1 23 -4z m3137 -40 l0 -48 43 -3 42 -3 0 -43 0 -42 50 -3 50 -2 2 43 1
43 7 -45 7 -45 1 43 2 42 39 0 c22 0 43 5 46 10 3 6 26 10 51 10 l44 0 0 39 0
40 -47 4 -48 3 53 2 52 2 0 -50 0 -50 -50 0 -50 0 0 -50 0 -50 -102 -1 c-127
-1 -150 0 -162 12 -6 5 0 9 17 9 23 0 27 4 27 30 0 27 -3 30 -30 30 -26 0 -30
-4 -30 -27 0 -38 -21 -15 -22 24 -1 26 -4 29 -32 26 -28 -2 -29 -2 -6 5 20 6
25 14 25 42 0 33 -2 35 -35 35 -28 0 -35 -4 -40 -25 -6 -24 -7 -24 -11 6 l-5
31 55 2 56 2 0 -48z m197 -3 l-4 -50 -43 0 c-25 0 -45 -5 -48 -12 -3 -7 -6 15
-6 50 l-1 62 53 0 52 0 -3 -50z m-3305 -32 c-2 -13 -4 -3 -4 22 0 25 2 35 4
23 2 -13 2 -33 0 -45z m693 32 c0 -26 -3 -30 -27 -29 -24 2 -25 2 -5 6 15 3
22 11 22 29 0 13 2 24 5 24 3 0 5 -13 5 -30z m90 0 c0 -27 -3 -30 -30 -30 -27
0 -30 3 -30 30 0 27 3 30 30 30 27 0 30 -3 30 -30z m-727 13 c-7 -2 -21 -2
-30 0 -10 3 -4 5 12 5 17 0 24 -2 18 -5z m907 -28 c0 -20 -5 -25 -25 -25 -20
0 -25 5 -25 25 0 20 5 25 25 25 20 0 25 -5 25 -25z m5843 -36 c-6 -6 -32 -8
-59 -6 l-49 3 53 2 c32 1 52 6 52 14 0 6 3 8 7 5 4 -4 2 -12 -4 -18z m897 6
c0 -8 -2 -15 -4 -15 -2 0 -6 7 -10 15 -3 8 -1 15 4 15 6 0 10 -7 10 -15z
m-7749 -95 l39 0 2 43 1 42 6 -45 6 -45 45 0 c42 0 45 2 51 30 4 17 5 -7 2
-52 l-6 -83 40 0 c21 0 44 -5 51 -12 9 -9 12 -6 12 15 0 19 5 27 18 26 9 0 12
-3 5 -5 -7 -3 -10 -11 -7 -19 3 -7 1 -16 -5 -20 -7 -3 -11 -43 -11 -96 l0 -89
50 0 50 0 0 -50 0 -50 50 0 50 0 0 -50 0 -50 34 0 c18 0 39 -7 46 -15 7 -8 15
-13 19 -11 4 3 5 -11 3 -30 -4 -33 -3 -34 29 -35 l34 -1 -30 -7 c-28 -6 -30
-9 -30 -51 l0 -45 49 -1 49 -1 -2 -101 -2 -102 50 0 51 0 0 -49 0 -49 49 -4
c27 -1 49 -1 49 2 0 3 0 42 1 87 1 72 3 81 19 78 9 -2 23 -4 30 -4 8 -1 12
-23 12 -74 0 -50 5 -80 16 -95 8 -12 19 -20 23 -18 11 7 12 -44 1 -65 -8 -14
-22 -19 -55 -19 l-45 0 0 -45 0 -45 -50 0 -50 0 0 50 0 50 -50 0 -50 0 0 100
0 100 -50 0 -50 0 -2 93 c-1 50 -2 118 -2 149 l-1 58 -97 0 -98 0 0 100 0 100
-50 0 -50 0 0 50 0 50 -50 0 -50 0 0 100 0 100 -50 0 -50 0 0 53 0 52 -50 -3
-50 -4 2 59 2 58 3 -52 4 -53 40 0z m102 93 c-7 -2 -21 -2 -30 0 -10 3 -4 5
12 5 17 0 24 -2 18 -5z m4361 -8 c3 -8 1 -15 -4 -15 -6 0 -10 7 -10 15 0 8 2
15 4 15 2 0 6 -7 10 -15z m3190 7 c2 -4 -11 -6 -30 -4 -19 2 -34 6 -34 8 0 8
59 4 64 -4z m-6816 -19 c-10 -2 -28 -2 -40 0 -13 2 -5 4 17 4 22 1 32 -1 23
-4z m6012 -43 l0 -40 -52 2 -53 2 48 3 c46 4 47 5 47 39 0 18 2 34 5 34 3 0 5
-18 5 -40z m-6073 8 c-3 -8 -6 -5 -6 6 -1 11 2 17 5 13 3 -3 4 -12 1 -19z
m3686 -65 c-7 -52 -13 -54 -13 -5 0 23 4 42 9 42 5 0 7 -17 4 -37z m3187 -33
l0 -50 -50 0 -50 0 0 50 0 50 50 0 50 0 0 -50z m-6403 -27 c-3 -10 -5 -2 -5
17 0 19 2 27 5 18 2 -10 2 -26 0 -35z m3017 -28 c3 -8 1 -15 -4 -15 -6 0 -10
7 -10 15 0 8 2 15 4 15 2 0 6 -7 10 -15z m86 0 c0 -8 -4 -15 -10 -15 -5 0 -7
7 -4 15 4 8 8 15 10 15 2 0 4 -7 4 -15z m2314 0 c3 -8 1 -15 -4 -15 -6 0 -10
7 -10 15 0 8 2 15 4 15 2 0 6 -7 10 -15z m86 0 c0 -8 -4 -15 -10 -15 -5 0 -7
7 -4 15 4 8 8 15 10 15 2 0 4 -7 4 -15z m-4625 -20 c28 -29 33 -50 9 -41 -9 3
-22 6 -30 6 -9 0 -14 11 -14 30 0 36 2 37 35 5z m1426 -22 c1 -48 1 -144 0
-153 -1 -3 -22 -5 -48 -5 -45 0 -48 -2 -54 -30 -7 -30 -7 -30 -8 -3 -1 19 -7
28 -23 31 -16 3 -14 4 5 2 15 -1 27 2 27 7 0 4 -13 8 -30 8 -27 0 -30 4 -36
40 -4 22 -10 40 -15 40 -5 0 -8 6 -6 13 1 6 -3 11 -8 10 -6 -1 -9 17 -6 43 l3
44 99 0 99 0 1 -47z m-1994 -25 c-3 -7 -5 -2 -5 12 0 14 2 19 5 13 2 -7 2 -19
0 -25z m138 -8 c8 0 15 -4 15 -10 0 -5 -14 -10 -31 -10 -22 0 -28 4 -22 13 4
6 7 21 5 32 -2 17 -1 17 8 -2 5 -13 16 -23 25 -23z m494 -24 c-3 -3 -11 5 -18
17 -13 21 -12 21 5 5 10 -10 16 -20 13 -22z m84 28 c-7 -3 -10 -11 -7 -19 3
-7 1 -16 -5 -20 -7 -4 -11 4 -11 19 0 18 5 26 18 25 9 0 12 -3 5 -5z m4391
-19 c-4 -8 -8 -15 -10 -15 -2 0 -4 7 -4 15 0 8 4 15 10 15 5 0 7 -7 4 -15z
m-2500 -10 c3 -8 1 -15 -4 -15 -6 0 -10 7 -10 15 0 8 2 15 4 15 2 0 6 -7 10
-15z m1285 -77 c-1 -46 -4 -71 -6 -55 -4 24 -9 27 -46 29 l-42 1 43 4 42 4 0
44 c0 40 -2 44 -27 48 -26 4 -26 4 5 6 l32 1 -1 -82z m701 31 l0 -51 -50 4
c-47 3 -50 2 -56 -24 -3 -16 -3 -43 0 -60 3 -18 3 -27 0 -20 -6 13 -95 18 -92
5 0 -5 -1 -15 -5 -23 -3 -8 -8 -22 -10 -30 -4 -9 -6 -6 -6 8 -1 18 -7 22 -31
22 -27 0 -30 -3 -30 -29 0 -23 5 -31 23 -34 19 -4 19 -4 -5 -6 -14 0 -29 -7
-32 -13 -4 -7 -4 -2 -1 12 2 14 5 37 5 53 0 25 3 27 46 27 25 0 43 4 39 9 -3
5 -1 12 5 16 11 7 13 45 4 69 -4 9 -19 17 -38 17 -30 2 -30 2 -3 6 21 3 27 10
28 31 1 23 3 21 8 -8 6 -33 9 -35 48 -38 45 -3 42 -7 56 63 3 12 5 7 6 -12 1
-32 3 -33 41 -33 40 0 40 0 40 39 0 37 -2 40 -32 44 -32 4 -32 4 5 5 l37 2 0
-51z m-793 -26 c-3 -10 -5 -4 -5 12 0 17 2 24 5 18 2 -7 2 -21 0 -30z m-1193
-18 c-4 -8 -8 -15 -10 -15 -2 0 -4 7 -4 15 0 8 4 15 10 15 5 0 7 -7 4 -15z
m-1813 -10 c0 -5 1 -28 2 -50 l2 -40 80 -2 c44 -1 88 -4 98 -7 14 -3 17 0 12
12 -3 9 -3 13 1 9 4 -4 6 -54 5 -112 l-3 -104 49 -3 48 -3 3 -47 3 -48 -50 0
-51 0 0 50 0 50 -78 0 c-66 0 -82 3 -97 20 -10 11 -21 18 -25 15 -3 -2 -5 8
-2 23 3 25 7 27 55 26 29 0 72 3 97 6 33 5 18 7 -55 8 -172 1 -155 -3 -155 42
0 33 3 40 20 40 16 0 20 -7 20 -30 0 -16 5 -30 10 -30 6 0 9 19 9 43 -2 41 -3
43 -31 39 -16 -3 -28 0 -28 7 0 6 9 11 20 11 16 0 20 7 20 30 0 27 -3 30 -30
30 -23 0 -30 -4 -30 -20 0 -11 -4 -20 -10 -20 -5 0 -10 9 -10 20 0 11 -4 20
-10 20 -5 0 -10 -9 -10 -20 0 -13 -7 -20 -20 -20 -15 0 -20 7 -20 29 0 26 4
30 33 33 64 6 127 3 128 -7z m84 -15 l20 -25 -22 19 c-13 11 -23 24 -23 29 0
6 1 8 3 6 1 -2 11 -15 22 -29z m5015 -31 l0 -50 -47 3 -48 3 -3 48 -3 47 50 0
51 0 0 -51z m-2303 -36 c-3 -10 -5 -2 -5 17 0 19 2 27 5 18 2 -10 2 -26 0 -35z
m-3267 -3 c0 -5 -8 -10 -17 -10 -15 0 -16 2 -3 10 19 12 20 12 20 0z m3387 -5
c0 -8 -4 -12 -9 -9 -4 3 -8 9 -8 15 0 5 4 9 8 9 5 0 9 -7 9 -15z m82 -50 l2
-55 -53 2 -53 2 48 3 49 4 -4 54 c-2 30 -1 52 2 50 4 -2 8 -29 9 -60z m-4095
39 c3 -9 5 -30 5 -47 -2 -29 -2 -28 -8 8 -6 40 -6 40 -51 40 -42 0 -45 -2 -51
-30 -7 -30 -7 -30 -8 -3 -1 19 -7 28 -23 31 -16 3 -14 4 5 2 15 -1 27 2 27 7
0 4 22 8 49 8 35 0 51 -4 55 -16z m160 -5 c-3 -5 -14 -9 -25 -9 -14 0 -19 -7
-19 -30 0 -27 3 -30 32 -30 38 0 31 -10 -14 -19 -31 -6 -33 -10 -33 -46 0 -38
2 -40 35 -47 21 -4 -3 -6 -57 -5 -84 2 -92 0 -87 -15 4 -13 0 -18 -13 -17 -10
0 -13 3 -5 6 6 2 9 9 6 14 -3 6 -1 16 6 24 6 8 10 26 8 42 -2 23 -9 29 -38 34
-23 4 -4 7 53 8 l89 1 -2 43 c-3 64 -3 63 35 59 19 -2 32 -8 29 -13z m3989 14
c-7 -2 -19 -2 -25 0 -7 3 -2 5 12 5 14 0 19 -2 13 -5z m1061 -8 c3 -8 1 -15
-4 -15 -6 0 -10 7 -10 15 0 8 2 15 4 15 2 0 6 -7 10 -15z m86 0 c0 -8 -4 -15
-10 -15 -5 0 -7 7 -4 15 4 8 8 15 10 15 2 0 4 -7 4 -15z m-5062 -17 c2 -10 -2
-18 -8 -18 -6 0 -8 5 -5 10 3 6 -1 10 -9 10 -8 0 -17 4 -20 9 -3 4 4 8 17 7
12 -1 23 -9 25 -18z m72 15 c0 -2 -10 -8 -22 -13 -18 -7 -19 -9 -5 -9 10 -1
17 -8 16 -18 0 -11 -3 -13 -6 -5 -2 6 -11 12 -19 12 -14 0 -19 21 -8 33 6 6
44 6 44 0z m2191 -40 c3 -161 4 -158 -27 -155 -39 5 -56 22 -21 22 23 0 27 4
27 30 0 27 -3 30 -30 30 -26 0 -30 -4 -30 -27 0 -33 -17 -20 -22 17 -2 18 -10
26 -27 28 -13 2 -33 12 -44 23 -12 11 -35 19 -54 19 -30 0 -33 3 -33 30 l0 30
130 0 130 0 1 -47z m437 40 c-20 -3 -28 -11 -31 -31 -4 -24 -4 -24 -6 6 -1 30
1 32 32 31 29 -2 29 -2 5 -6z m3162 -43 l0 -50 -50 0 -50 0 0 50 0 50 50 0 50
0 0 -50z m-5693 -2 c-3 -7 -5 -2 -5 12 0 14 2 19 5 13 2 -7 2 -19 0 -25z m195
-11 c3 -31 2 -33 -29 -35 -18 -2 -33 2 -33 8 0 5 9 10 20 10 15 0 20 7 20 25
0 37 17 30 22 -8z m3251 -30 l42 -4 -47 -1 -48 -2 1 33 c2 29 2 29 6 5 4 -24
10 -27 46 -31z m-4533 8 c10 -12 10 -15 -2 -15 -8 0 -15 7 -15 15 0 8 1 15 2
15 2 0 8 -7 15 -15z m2146 -26 c3 -5 -6 -9 -20 -9 -22 0 -26 -4 -26 -30 0 -27
3 -30 30 -30 27 0 30 3 30 31 0 17 4 28 10 24 6 -3 10 -17 10 -31 0 -13 5 -24
10 -24 6 0 10 9 10 20 0 17 7 20 40 20 38 0 40 -2 40 -31 0 -31 0 -31 -50 -27
-28 1 -50 1 -50 -2 0 -8 -100 -6 -101 3 0 4 -1 25 -1 47 0 22 1 44 1 48 1 11
59 3 67 -9z m1284 1 c21 0 41 6 43 13 9 20 6 -15 -3 -43 -8 -24 -8 -24 -9 -2
-1 18 -7 22 -31 22 -27 0 -30 -3 -30 -29 0 -23 5 -31 23 -34 15 -3 12 -5 -11
-6 -18 0 -31 -5 -27 -10 3 -5 1 -12 -5 -16 -5 -3 -10 -22 -10 -41 0 -33 -1
-34 -39 -34 -22 0 -41 -5 -43 -10 -2 -6 -3 16 -3 50 0 34 1 56 3 51 2 -6 24
-11 50 -11 25 0 42 3 39 7 -4 3 -2 12 4 20 7 8 9 30 6 56 -3 23 -4 36 -1 30 3
-7 23 -13 44 -13z m2452 -37 c2 -25 -1 -47 -7 -48 -5 -2 -44 -6 -85 -8 -41 -3
-61 -2 -44 1 29 6 31 10 32 50 0 23 1 45 1 50 1 4 23 5 50 4 l49 -4 4 -45z
m-4549 40 c-7 -2 -19 -2 -25 0 -7 3 -2 5 12 5 14 0 19 -2 13 -5z m-46 -45 c-3
-7 -5 -2 -5 12 0 14 2 19 5 13 2 -7 2 -19 0 -25z m3046 -41 l42 -4 -47 -1 -48
-2 1 33 c2 29 2 29 6 5 4 -24 10 -27 46 -31z m844 31 c-3 -8 -6 -5 -6 6 -1 11
2 17 5 13 3 -3 4 -12 1 -19z m-30 -34 c-3 -3 -12 -4 -19 -1 -8 3 -5 6 6 6 11
1 17 -2 13 -5z m-869 -56 l3 -48 -48 2 -48 1 43 4 c42 4 42 5 42 43 0 34 -3
39 -27 43 -27 5 -27 5 2 3 28 -1 30 -3 33 -48z m440 45 c-20 -3 -28 -11 -31
-31 -4 -24 -4 -24 -6 6 -1 30 1 32 32 31 29 -2 29 -2 5 -6z m-3941 -65 c-2
-13 -4 -5 -4 17 -1 22 1 32 4 23 2 -10 2 -28 0 -40z m5000 5 c-3 -10 -5 -2 -5
17 0 19 2 27 5 18 2 -10 2 -26 0 -35z m-5637 -4 c0 -27 -3 -30 -27 -27 -22 2
-29 9 -31 31 -3 24 0 27 27 27 28 0 31 -3 31 -31z m747 -6 c-3 -10 -5 -4 -5
12 0 17 2 24 5 18 2 -7 2 -21 0 -30z m4800 5 c-3 -7 -5 -2 -5 12 0 14 2 19 5
13 2 -7 2 -19 0 -25z m-3768 -32 c-2 -2 -13 8 -23 22 l-19 27 24 -22 c12 -12
21 -24 18 -27z m491 14 c-19 -4 -29 -8 -22 -9 7 0 10 -6 6 -12 -4 -8 -9 -7
-15 2 -12 20 -1 29 34 28 l32 -2 -35 -7z m3320 -20 c20 0 41 5 47 11 9 9 10 3
7 -22 -7 -44 -24 -62 -24 -26 0 23 -4 27 -30 27 -27 0 -30 -3 -30 -30 0 -26 4
-30 26 -30 14 0 23 -4 19 -10 -3 -5 -19 -10 -36 -10 -29 0 -29 -1 -29 -55 l0
-55 33 -1 c23 -1 26 -3 10 -6 -15 -3 -23 -12 -24 -26 l-2 -22 -4 22 c-6 32
-27 45 -70 41 l-38 -3 0 -82 c0 -44 -3 -79 -7 -76 -5 2 -8 17 -8 33 0 27 -3
29 -42 32 -43 3 -43 3 -46 46 l-3 42 -45 0 -44 0 0 -44 0 -45 43 -3 c42 -3 42
-3 47 -48 4 -40 8 -46 35 -51 l30 -7 -27 -1 c-26 -1 -28 -4 -28 -40 0 -36 3
-40 28 -44 25 -4 25 -4 -5 -6 l-33 -1 0 53 0 52 -50 -3 -50 -4 0 101 0 102 99
-3 99 -3 -1 50 -1 50 51 5 51 5 -2 52 c-1 33 2 49 8 43 6 -6 26 -10 46 -10z
m-4862 3 c-75 -4 -77 -4 -80 -31 -3 -26 -4 -26 -9 6 l-6 32 86 -2 86 -2 -77
-3z m1414 -39 c2 -25 1 -47 -2 -49 -4 -2 -4 -25 -1 -52 l6 -48 50 -1 50 -1 -2
61 c-1 52 0 58 11 44 7 -10 25 -18 39 -18 14 0 28 7 32 18 7 16 8 15 15 -3 5
-11 9 -37 9 -57 1 -37 2 -38 41 -38 40 0 40 0 40 39 0 39 -1 40 -37 44 l-38 4
43 1 42 2 0 -50 0 -50 -50 0 c-49 0 -50 -1 -50 -30 0 -28 -2 -30 -41 -30 -29
0 -38 -3 -33 -12 6 -10 4 -10 -7 0 -7 6 -37 12 -66 12 -46 0 -53 3 -53 20 0
17 -7 20 -48 20 -26 0 -52 4 -58 9 -5 5 -27 11 -49 13 -39 3 -40 4 -43 43 -2
22 -6 43 -10 47 -4 4 -28 8 -54 9 -26 2 -45 6 -42 11 3 4 -10 9 -28 9 -32 2
-32 2 -4 6 16 3 33 0 39 -6 6 -6 30 -11 54 -11 24 0 43 -3 43 -8 0 -4 18 -6
40 -4 35 4 40 1 46 -22 3 -15 4 -35 1 -46 -3 -11 -1 -20 5 -20 5 0 9 24 8 53
-1 28 -1 71 -1 95 l1 42 49 0 49 0 4 -46z m4298 -4 l0 -50 -50 0 -50 0 0 -50
0 -50 -50 0 -50 0 0 50 0 50 50 0 50 0 0 50 0 50 50 0 50 0 0 -50z m-4213 -17
c-3 -10 -5 -2 -5 17 0 19 2 27 5 18 2 -10 2 -26 0 -35z m1040 41 c-3 -3 -12
-4 -19 -1 -8 3 -5 6 6 6 11 1 17 -2 13 -5z m-1839 -29 c-3 -3 -9 2 -12 12 -6
14 -5 15 5 6 7 -7 10 -15 7 -18z m-1328 -15 c0 -27 -3 -30 -30 -30 -27 0 -30
3 -30 30 0 27 3 30 30 30 27 0 30 -3 30 -30z m836 -16 c-4 -9 -19 -13 -48 -12
l-43 1 43 4 c38 4 42 7 43 31 1 18 3 21 6 9 3 -10 2 -25 -1 -33z m66 -1 c3
-51 1 -49 71 -52 23 -1 27 -5 27 -32 l0 -31 -80 4 c-44 2 -80 -1 -80 -5 0 -5
-23 -7 -50 -5 l-51 3 3 -45 3 -45 45 -2 c25 -1 68 -2 97 -2 l52 -1 3 -47 3
-48 45 0 45 0 1 50 c3 112 1 105 34 105 23 0 30 -4 30 -20 0 -15 -7 -20 -24
-20 -14 0 -28 -4 -31 -10 -4 -6 7 -10 24 -10 17 0 31 -4 31 -10 0 -5 -9 -10
-20 -10 -16 0 -20 -7 -20 -30 0 -27 3 -30 30 -30 23 0 30 4 30 20 0 11 5 20
10 20 9 0 14 -39 8 -57 -2 -3 -23 -7 -48 -7 l-45 -1 0 -92 c0 -50 -3 -89 -7
-87 -4 2 -9 0 -13 -6 -3 -5 -24 -10 -46 -10 -54 0 -40 -20 14 -21 23 0 36 -3
30 -6 -7 -2 -13 -20 -13 -39 0 -24 -5 -34 -15 -34 -8 0 -15 7 -15 16 0 9 -9
18 -20 21 -19 5 -25 24 -22 78 4 68 2 167 -3 175 -3 6 -42 10 -85 10 -99 0
-120 18 -111 96 1 6 -11 10 -26 9 -19 -2 -21 -1 -5 2 23 5 24 7 24 143 l0 45
8 -45 7 -45 1 43 2 42 43 1 c23 1 45 1 50 0 4 0 6 2 6 7 -1 4 -1 19 0 35 1 22
6 27 25 27 23 0 25 -5 28 -47z m498 37 c0 -5 -9 -10 -20 -10 -11 0 -20 5 -20
10 0 6 9 10 20 10 11 0 20 -4 20 -10z m857 -22 c-3 -7 -5 -2 -5 12 0 14 2 19
5 13 2 -7 2 -19 0 -25z m2983 2 c0 -27 -3 -30 -32 -29 -31 2 -31 2 -5 6 21 3
27 10 27 29 0 13 2 24 5 24 3 0 5 -13 5 -30z m-2300 0 c0 -5 -5 -10 -11 -10
-5 0 -7 5 -4 10 3 6 8 10 11 10 2 0 4 -4 4 -10z m-2317 -27 c-7 -2 -21 -2 -30
0 -10 3 -4 5 12 5 17 0 24 -2 18 -5z m1090 0 c-7 -2 -21 -2 -30 0 -10 3 -4 5
12 5 17 0 24 -2 18 -5z m395 0 c-10 -2 -26 -2 -35 0 -10 3 -2 5 17 5 19 0 27
-2 18 -5z m1675 -10 l-53 -4 0 -40 0 -39 110 0 110 0 0 39 0 39 83 5 c105 8
312 9 305 2 -3 -3 -47 -6 -97 -6 l-91 0 0 -39 0 -39 71 0 c39 1 73 -1 76 -4 2
-3 -52 -5 -121 -6 -70 0 -132 -3 -138 -7 -7 -5 -8 -3 -4 5 6 9 -17 11 -101 5
-61 -4 -149 -3 -196 1 -86 7 -87 7 -86 33 2 24 2 24 6 5 3 -18 11 -23 34 -23
26 0 29 3 29 30 0 24 -4 30 -22 31 -44 2 34 17 87 16 l50 -1 -52 -3z m-3153
-48 c0 -41 -2 -45 -25 -45 -23 0 -25 4 -25 45 0 41 2 45 25 45 23 0 25 -4 25
-45z m17 -22 c-2 -16 -4 -5 -4 22 0 28 2 40 4 28 2 -13 2 -35 0 -50z m1093 55
c0 -4 -4 -8 -9 -8 -6 0 -12 4 -15 8 -3 5 1 9 9 9 8 0 15 -4 15 -9z m102 -108
c-4 -25 -9 -30 -33 -30 -25 0 -29 4 -29 29 0 25 5 30 28 33 37 5 39 3 34 -32z
m636 23 c-20 -3 -28 -11 -31 -31 -4 -24 -4 -24 -6 6 -1 30 1 32 32 31 29 -2
29 -2 5 -6z m529 1 c-3 -3 -12 -4 -19 -1 -8 3 -5 6 6 6 11 1 17 -2 13 -5z
m3131 -46 l3 -48 -50 0 -51 0 0 -50 0 -50 -50 0 -50 0 0 -50 0 -50 -50 0 -50
0 0 -50 0 -50 -50 0 -50 0 1 33 c2 30 2 30 6 5 4 -25 8 -28 44 -28 39 0 39 0
39 39 0 36 -3 40 -27 44 -26 4 -26 4 5 6 29 1 32 4 33 34 2 30 2 30 6 5 4 -25
8 -28 44 -28 39 0 39 0 39 39 0 36 -3 40 -27 44 -26 4 -26 4 5 6 30 1 32 4 34
39 1 36 1 36 5 5 4 -31 7 -33 44 -33 39 0 39 0 39 39 0 37 -2 40 -32 44 -32 4
-32 4 5 5 37 2 37 2 37 45 0 24 3 47 7 51 4 4 25 6 48 4 l40 -3 3 -47z m-5491
5 c-3 -10 -5 -4 -5 12 0 17 2 24 5 18 2 -7 2 -21 0 -30z m2990 -5 c-3 -7 -5
-2 -5 12 0 14 2 19 5 13 2 -7 2 -19 0 -25z m-90 0 c-3 -8 -6 -5 -6 6 -1 11 2
17 5 13 3 -3 4 -12 1 -19z m1493 -18 c0 -27 -3 -30 -32 -29 -31 2 -31 2 -5 6
21 3 27 10 27 29 0 13 2 24 5 24 3 0 5 -13 5 -30z m-2632 3 c-10 -2 -28 -2
-40 0 -13 2 -5 4 17 4 22 1 32 -1 23 -4z m-71 -19 c-3 -3 -12 -4 -19 -1 -8 3
-5 6 6 6 11 1 17 -2 13 -5z m-1207 -34 c0 -5 -2 -10 -4 -10 -3 0 -8 5 -11 10
-3 6 -1 10 4 10 6 0 11 -4 11 -10z m97 -52 c-3 -7 -5 -2 -5 12 0 14 2 19 5 13
2 -7 2 -19 0 -25z m53 -17 l25 -4 -25 -8 c-22 -6 -23 -7 -4 -8 12 -1 27 -8 34
-16 16 -19 115 -22 104 -2 -6 10 -4 10 7 0 7 -7 35 -13 61 -13 41 0 48 -3 48
-20 0 -17 -7 -20 -42 -21 -24 -1 -46 -1 -49 -1 -3 1 -6 -5 -6 -11 0 -10 18
-11 76 -5 42 5 83 7 91 4 8 -2 -1 -4 -21 -5 -34 -1 -35 -3 -37 -40 -2 -22 2
-42 8 -46 13 -8 13 -25 0 -25 -5 0 -9 5 -7 11 1 7 -15 12 -43 13 -45 1 -45 1
-45 37 l0 36 -50 -1 -50 -1 0 -35 c0 -34 1 -35 42 -35 62 0 61 -11 -1 -14
l-54 -2 -4 50 c-2 31 1 47 7 44 7 -4 7 -2 0 4 -6 6 -29 8 -55 4 l-45 -6 -3
-47 -3 -48 -47 0 c-26 0 -54 -5 -62 -10 -10 -6 -11 -10 -2 -10 17 0 15 -37 -3
-44 -10 -4 -15 1 -15 14 0 13 -7 20 -20 20 -27 0 -29 -56 -2 -63 9 -3 1 -5
-18 -4 -35 1 -35 1 -32 39 2 21 9 38 16 38 6 0 4 5 -4 10 -11 7 -1 10 36 10
l50 0 1 90 c1 49 5 95 9 101 4 7 24 9 50 6 24 -2 43 -2 42 2 0 3 1 20 2 36 2
29 2 29 9 5 4 -16 16 -26 31 -29z m20 29 c0 -13 -7 -20 -20 -20 -13 0 -20 7
-20 20 0 13 7 20 20 20 13 0 20 -7 20 -20z m-1086 -46 c28 -11 17 -20 -19 -16
-33 4 -35 3 -35 -27 0 -28 3 -31 30 -31 23 0 30 4 30 20 0 11 5 20 10 20 9 0
15 -28 11 -57 -1 -9 8 -11 29 -7 19 4 30 2 30 -5 0 -6 -9 -11 -20 -11 -16 0
-20 -7 -20 -30 0 -27 3 -30 30 -30 25 0 30 4 30 25 0 14 5 25 10 25 6 0 10
-16 10 -35 0 -32 2 -35 29 -35 17 0 33 -5 36 -10 4 -6 10 -8 15 -5 12 7 20
-29 17 -72 -3 -49 -15 -40 -19 15 -3 43 -5 47 -30 50 l-28 3 0 -80 0 -81 80 0
c73 0 80 2 80 20 0 27 18 25 22 -2 2 -17 12 -24 38 -29 19 -3 -49 -6 -152 -7
l-188 -1 0 32 c-1 18 -2 59 -5 92 -2 43 -2 49 3 20 7 -38 9 -40 45 -43 36 -3
37 -4 37 -43 0 -21 4 -39 9 -39 11 0 17 65 13 133 l-4 47 -52 0 -52 0 4 41 c3
28 0 44 -9 50 -19 12 -69 11 -69 -1 0 -5 14 -10 30 -10 29 0 30 -2 30 -45 l0
-45 -39 0 c-29 0 -41 5 -45 18 -4 12 -1 153 4 190 0 5 59 2 74 -4z m4726 -44
l0 -50 -42 2 -43 1 38 4 c36 4 37 6 37 43 0 37 -1 39 -37 43 l-38 4 43 1 42 2
0 -50z m-4103 -17 c-3 -10 -5 -2 -5 17 0 19 2 27 5 18 2 -10 2 -26 0 -35z
m-537 7 c0 -13 -7 -20 -20 -20 -13 0 -20 7 -20 20 0 13 7 20 20 20 13 0 20 -7
20 -20z m1247 -12 c-3 -7 -5 -2 -5 12 0 14 2 19 5 13 2 -7 2 -19 0 -25z m3200
0 c-3 -7 -5 -2 -5 12 0 14 2 19 5 13 2 -7 2 -19 0 -25z m-102 -28 c-4 -6 14
-11 47 -12 50 -1 51 -2 11 -5 -40 -4 -43 -6 -43 -34 0 -27 2 -29 43 -30 38 -2
36 -3 -18 -9 -33 -4 -80 -8 -105 -7 -43 0 -43 0 10 6 l55 6 0 35 0 35 -52 3
-53 3 -2 -38 -1 -38 -4 37 c-4 33 -7 37 -36 40 -18 2 6 5 52 6 46 1 86 4 89 7
9 9 14 6 7 -5z m-3762 -7 c-38 -4 -43 -7 -43 -29 0 -13 -4 -24 -10 -24 -5 0
-10 9 -10 20 0 13 -7 20 -20 20 -11 0 -20 5 -20 10 0 6 30 9 73 8 47 -1 58 -3
30 -5z m777 -7 c0 -3 -4 -8 -10 -11 -5 -3 -10 -1 -10 4 0 6 5 11 10 11 6 0 10
-2 10 -4z m-240 -36 c0 -27 -3 -30 -30 -30 -27 0 -30 3 -30 30 0 27 3 30 30
30 27 0 30 -3 30 -30z m494 10 c25 0 28 -3 24 -25 -4 -17 0 -29 11 -35 9 -5
11 -10 4 -10 -6 0 -15 5 -18 10 -4 6 -11 7 -17 4 -7 -5 -8 -2 -3 6 6 9 -1 12
-27 8 -26 -3 -34 0 -31 9 3 7 0 13 -6 13 -6 0 -11 7 -11 16 0 12 6 15 23 10
12 -3 35 -6 51 -6z m2533 -22 c-3 -7 -5 -2 -5 12 0 14 2 19 5 13 2 -7 2 -19 0
-25z m-2237 2 c0 -15 -7 -20 -26 -20 -15 0 -23 -4 -19 -10 4 -6 3 -10 -2 -9
-4 1 -18 -2 -30 -6 -16 -5 -22 -14 -19 -29 2 -11 1 -16 -1 -10 -5 13 -50 24
-79 20 -10 -2 -13 -1 -6 1 6 3 12 8 12 13 0 5 24 10 53 12 50 3 52 4 49 31 -3
25 -1 27 32 27 29 0 36 -4 36 -20z m50 0 c0 -11 -4 -20 -10 -20 -5 0 -10 9
-10 20 0 11 5 20 10 20 6 0 10 -9 10 -20z m174 -12 c-3 -4 0 -8 5 -8 6 0 11
-8 10 -17 0 -13 -2 -14 -6 -4 -5 11 -7 11 -14 0 -7 -10 -11 -11 -16 -3 -5 7
-17 14 -28 17 -15 3 -12 5 10 7 17 1 25 4 18 7 -10 3 -10 7 0 18 13 13 31 -1
21 -17z m1108 -31 l3 -62 -39 4 c-36 3 -38 5 -32 33 3 17 6 43 6 59 0 25 4 29
29 29 29 0 29 -1 33 -63z m711 43 c3 -11 1 -18 -4 -14 -5 3 -9 12 -9 20 0 20
7 17 13 -6z m79 -12 c-8 -8 -9 -4 -5 13 4 13 8 18 11 10 2 -7 -1 -18 -6 -23z
m-1993 -23 c3 -17 2 -17 -13 -3 -19 20 -21 31 -3 26 6 -3 14 -13 16 -23z m201
-35 l0 -30 -85 0 c-50 0 -85 4 -85 10 0 9 49 16 75 10 6 -1 7 2 3 6 -13 12 25
33 60 34 29 0 32 -3 32 -30z m2499 -2 c-2 -31 -2 -31 -6 -5 -4 24 -8 27 -43
27 -35 0 -39 -3 -43 -27 -4 -26 -4 -26 -6 5 l-1 32 50 0 50 0 -1 -32z m-3802
-15 c-3 -10 -5 -4 -5 12 0 17 2 24 5 18 2 -7 2 -21 0 -30z m156 30 c-33 -3
-43 -8 -46 -26 -4 -18 -5 -17 -6 6 -1 26 1 27 47 25 l47 -1 -42 -4z m3144 -30
c-3 -10 -5 -4 -5 12 0 17 2 24 5 18 2 -7 2 -21 0 -30z m-3090 -5 c-3 -7 -5 -2
-5 12 0 14 2 19 5 13 2 -7 2 -19 0 -25z m520 0 c-3 -7 -5 -2 -5 12 0 14 2 19
5 13 2 -7 2 -19 0 -25z m370 12 c1 -11 -2 -20 -8 -20 -5 0 -9 9 -9 20 0 11 4
20 8 20 4 0 8 -9 9 -20z m-67 -5 c0 -8 -4 -15 -10 -15 -5 0 -10 7 -10 15 0 8
5 15 10 15 6 0 10 -7 10 -15z m-1770 -15 c0 -13 -7 -20 -20 -20 -13 0 -20 7
-20 20 0 13 7 20 20 20 13 0 20 -7 20 -20z m2608 -5 c-4 -18 -1 -25 11 -27 9
0 -4 -4 -29 -7 -45 -6 -45 -6 -51 -51 l-6 -45 -1 42 c-2 37 -5 42 -29 46 -22
3 -21 4 5 3 30 -2 32 0 32 31 0 31 2 33 36 33 33 0 36 -2 32 -25z m-578 -9 c0
-2 -8 -10 -17 -17 -16 -13 -17 -12 -4 4 13 16 21 21 21 13z m-2030 -36 c0 -5
-9 -10 -20 -10 -11 0 -20 5 -20 10 0 6 9 10 20 10 11 0 20 -4 20 -10z m5140
-39 l0 -49 -53 -4 -52 -3 4 35 c5 32 6 33 9 8 3 -25 7 -28 43 -28 39 0 39 0
39 39 0 36 -3 40 -27 44 -26 4 -26 4 5 6 32 1 32 1 32 -48z m-4570 14 c0 -16
-6 -25 -15 -25 -9 0 -15 9 -15 25 0 16 6 25 15 25 9 0 15 -9 15 -25z m1877
-17 c-3 -8 -6 -5 -6 6 -1 11 2 17 5 13 3 -3 4 -12 1 -19z m233 15 c-14 -3 -28
-10 -32 -17 -5 -7 -8 -5 -8 7 0 13 8 17 33 16 27 -2 28 -2 7 -6z m80 -13 c0
-5 -4 -10 -10 -10 -5 0 -10 5 -10 10 0 6 5 10 10 10 6 0 10 -4 10 -10z m-2190
-30 c0 -5 -2 -10 -4 -10 -3 0 -8 5 -11 10 -3 6 -1 10 4 10 6 0 11 -4 11 -10z
m36 -5 c-8 -8 -17 -15 -20 -15 -3 0 -6 7 -6 15 0 9 9 15 21 15 18 0 19 -2 5
-15z m-716 -35 c20 0 40 4 46 10 6 6 8 -9 6 -40 l-4 -50 -48 0 -48 0 -4 50
c-2 31 0 46 7 40 5 -6 25 -10 45 -10z m2647 -27 c-3 -10 -5 -2 -5 17 0 19 2
27 5 18 2 -10 2 -26 0 -35z m63 17 c0 -25 -4 -30 -25 -30 -21 0 -25 5 -25 30
0 25 4 30 25 30 21 0 25 -5 25 -30z m-2510 -65 c42 0 45 2 52 30 l7 30 -3 -32
c-2 -31 -1 -32 43 -35 l46 -3 3 -47 3 -48 -100 0 -101 0 0 33 c-1 17 -2 59 -5
92 -2 43 -2 49 3 20 7 -40 7 -40 52 -40z m127 23 c-3 -7 -5 -2 -5 12 0 14 2
19 5 13 2 -7 2 -19 0 -25z m453 17 c0 -8 7 -15 15 -15 8 0 15 -7 15 -15 0 -8
-4 -15 -10 -15 -5 0 -10 5 -10 10 0 6 -6 9 -12 8 -7 -2 -12 3 -10 10 1 6 -2
12 -8 12 -5 0 -10 5 -10 10 0 6 7 10 15 10 8 0 15 -7 15 -15z m1108 -36 l27
-1 -30 -8 -30 -8 31 -1 c17 0 37 -8 44 -16 7 -8 16 -12 21 -9 5 3 6 -2 3 -10
-4 -12 -20 -16 -55 -16 l-49 0 1 63 c1 34 4 50 6 35 3 -22 10 -28 31 -29z
m-1513 1 c3 -5 -1 -10 -9 -10 -9 0 -16 5 -16 10 0 6 4 10 9 10 6 0 13 -4 16
-10z m1072 -6 c-3 -3 -12 -4 -19 -1 -8 3 -5 6 6 6 11 1 17 -2 13 -5z m218 -24
c-14 -16 -29 -20 -69 -18 l-51 2 53 3 c38 3 56 9 64 23 7 11 14 17 17 15 2 -3
-4 -14 -14 -25z m3387 -25 l-4 -55 -49 0 -49 0 2 38 c1 36 1 36 5 5 4 -31 7
-33 44 -33 39 0 39 0 39 40 0 38 -1 40 -32 41 -32 2 -32 2 7 9 22 4 40 8 40 9
0 0 -2 -24 -3 -54z m-4649 18 c-7 -2 -21 -2 -30 0 -10 3 -4 5 12 5 17 0 24 -2
18 -5z m1913 -48 c-3 -9 -17 -14 -33 -14 l-28 2 28 4 c19 3 27 10 28 26 0 12
3 16 6 9 3 -7 2 -19 -1 -27z m731 3 c-3 -7 -5 -2 -5 12 0 14 2 19 5 13 2 -7 2
-19 0 -25z m-1770 6 c-3 -3 -12 -4 -19 -1 -8 3 -5 6 6 6 11 1 17 -2 13 -5z
m1951 -1 c-16 -2 -40 -2 -55 0 -16 2 -3 4 27 4 30 0 43 -2 28 -4z m-945 -36
l32 3 -29 -10 c-33 -10 -61 4 -49 24 5 7 9 6 11 -5 2 -11 12 -15 35 -12z m740
6 c-7 -2 -19 -2 -25 0 -7 3 -2 5 12 5 14 0 19 -2 13 -5z m51 -31 c-6 -4 -14
-14 -17 -22 -3 -9 -6 -5 -6 11 -1 31 9 43 23 29 8 -8 8 -13 0 -18z m-836 -11
c2 -11 -1 -21 -7 -21 -6 0 -11 6 -11 13 0 7 -12 18 -27 23 -28 11 -28 11 7 9
27 -2 36 -7 38 -24z m72 -11 c0 -22 -5 -30 -18 -30 -15 0 -18 6 -14 30 2 17
10 30 18 30 9 0 14 -11 14 -30z m2340 -20 c0 -30 0 -30 -52 -28 l-53 2 48 3
c42 4 47 7 47 29 0 13 2 24 5 24 3 0 5 -13 5 -30z m-2327 -27 c-7 -2 -19 -2
-25 0 -7 3 -2 5 12 5 14 0 19 -2 13 -5z m18 -30 c12 -16 12 -17 -1 -6 -8 6
-26 13 -40 16 l-25 4 26 2 c15 0 33 -7 40 -16z"/>
<path d="M1528 5003 c12 -2 32 -2 45 0 12 2 2 4 -23 4 -25 0 -35 -2 -22 -4z"/>
<path d="M1704 4750 l1 -45 45 -1 45 -1 -42 4 c-41 4 -42 5 -46 46 l-4 42 1
-45z"/>
<path d="M1710 4650 l0 -40 40 0 40 0 0 40 0 40 -40 0 -40 0 0 -40z"/>
<path d="M3810 5150 l0 -40 40 0 40 0 0 40 0 40 -40 0 -40 0 0 -40z"/>
<path d="M6510 5050 l0 -40 40 0 40 0 0 40 0 40 -40 0 -40 0 0 -40z"/>
<path d="M6610 4950 l0 -40 40 0 40 0 0 40 0 40 -40 0 -40 0 0 -40z"/>
<path d="M8610 3800 l0 -190 40 0 40 0 0 190 0 190 -40 0 -40 0 0 -190z"/>
<path d="M1520 2950 c0 -27 3 -30 30 -30 27 0 30 3 30 30 0 27 -3 30 -30 30
-27 0 -30 -3 -30 -30z"/>
<path d="M1420 2650 c0 -27 3 -30 30 -30 27 0 30 3 30 30 0 27 -3 30 -30 30
-27 0 -30 -3 -30 -30z"/>
<path d="M3510 2850 l0 -40 40 0 40 0 0 40 0 40 -40 0 -40 0 0 -40z"/>
<path d="M1720 2350 c0 -27 3 -30 30 -30 27 0 30 3 30 30 0 27 -3 30 -30 30
-27 0 -30 -3 -30 -30z"/>
<path d="M1900 2155 c0 -39 3 -45 24 -51 14 -3 33 -4 43 -1 10 3 4 5 -14 6
-32 1 -33 2 -33 46 0 25 -4 45 -10 45 -5 0 -10 -20 -10 -45z"/>
<path d="M2503 1750 c0 -25 2 -35 4 -22 2 12 2 32 0 45 -2 12 -4 2 -4 -23z"/>
<path d="M2293 1698 c-2 -5 -22 -8 -44 -8 -39 0 -39 0 -39 -40 l0 -40 40 0 40
0 2 43 1 42 7 -45 7 -45 1 42 2 42 93 3 92 3 -98 5 c-55 3 -101 2 -104 -2z"/>
<path d="M2645 1700 l40 -7 -37 -2 c-37 -1 -38 -2 -38 -42 l0 -40 48 3 c43 3
47 5 50 30 6 48 -13 68 -61 67 l-42 -2 40 -7z"/>
<path d="M2593 1650 c0 -25 2 -35 4 -22 2 12 2 32 0 45 -2 12 -4 2 -4 -23z"/>
<path d="M2720 1650 c0 -27 3 -30 30 -30 27 0 30 3 30 30 0 27 -3 30 -30 30
-27 0 -30 -3 -30 -30z"/>
<path d="M2820 1550 c0 -27 3 -30 30 -30 27 0 30 3 30 30 0 27 -3 30 -30 30
-27 0 -30 -3 -30 -30z"/>
<path d="M8710 1850 l0 -40 40 0 40 0 0 40 0 40 -40 0 -40 0 0 -40z"/>
<path d="M4593 1706 c0 -7 20 -10 54 -8 30 2 51 8 47 13 -8 13 -101 8 -101 -5z"/>
<path d="M4580 1650 c0 -16 5 -30 10 -30 6 0 10 14 10 30 0 17 -4 30 -10 30
-5 0 -10 -13 -10 -30z"/>
<path d="M4620 1650 c0 -27 3 -30 30 -30 27 0 30 3 30 30 0 27 -3 30 -30 30
-27 0 -30 -3 -30 -30z"/>
<path d="M7120 1550 c0 -27 3 -30 30 -30 27 0 30 3 30 30 0 27 -3 30 -30 30
-27 0 -30 -3 -30 -30z"/>
<path d="M3590 1450 l0 -36 50 -3 50 -2 0 41 0 41 -50 -2 -50 -3 0 -36z"/>
<path d="M3520 1450 c0 -27 3 -30 30 -30 27 0 30 3 30 30 0 27 -3 30 -30 30
-27 0 -30 -3 -30 -30z"/>
<path d="M8510 1550 l0 -40 40 0 40 0 0 40 0 40 -40 0 -40 0 0 -40z"/>
<path d="M4796 1408 c3 -4 28 -8 55 -8 32 0 48 4 44 10 -4 6 -29 10 -55 9 -27
-2 -47 -6 -44 -11z"/>
<path d="M8410 1450 l0 -40 40 0 40 0 0 40 0 40 -40 0 -40 0 0 -40z"/>
<path d="M5020 1250 c0 -27 3 -30 30 -30 27 0 30 3 30 30 0 27 -3 30 -30 30
-27 0 -30 -3 -30 -30z"/>
<path d="M7520 1350 c0 -27 3 -30 30 -30 27 0 30 3 30 30 0 27 -3 30 -30 30
-27 0 -30 -3 -30 -30z"/>
<path d="M7320 1050 c0 -27 3 -30 30 -30 27 0 30 3 30 30 0 27 -3 30 -30 30
-27 0 -30 -3 -30 -30z"/>
<path d="M7210 950 l0 -40 40 0 40 0 0 40 0 40 -40 0 -40 0 0 -40z"/>
<path d="M7110 850 l0 -40 40 0 40 0 0 40 0 40 -40 0 -40 0 0 -40z"/>
<path d="M3908 1150 c-2 -22 0 -40 3 -40 4 0 7 -21 6 -47 l-2 -48 35 0 35 0
-2 48 c-1 26 2 47 6 47 3 0 5 18 3 40 -4 39 -5 40 -42 40 -37 0 -38 -1 -42
-40z m72 -100 c0 -27 -3 -30 -30 -30 -27 0 -30 3 -30 30 0 27 3 30 30 30 27 0
30 -3 30 -30z"/>
<path d="M4193 1050 c0 -25 2 -35 4 -22 2 12 2 32 0 45 -2 12 -4 2 -4 -23z"/>
<path d="M3945 1000 l-50 -7 53 -1 c29 -1 52 2 52 8 0 6 -1 9 -2 8 -2 0 -25
-4 -53 -8z"/>
<path d="M8210 1150 l0 -40 40 0 40 0 0 40 0 40 -40 0 -40 0 0 -40z"/>
<path d="M8110 1050 l0 -40 40 0 40 0 0 40 0 40 -40 0 -40 0 0 -40z"/>
<path d="M2800 850 c0 -16 5 -30 10 -30 6 0 10 14 10 30 0 17 -4 30 -10 30 -5
0 -10 -13 -10 -30z"/>
<path d="M2920 700 l0 -80 30 0 30 0 0 80 0 80 -30 0 -30 0 0 -80z"/>
<path d="M5994 1076 c-3 -8 -4 -25 -2 -38 3 -20 9 -23 56 -26 l52 -3 0 40 0
41 -50 0 c-35 0 -52 -5 -56 -14z"/>
<path d="M5920 1050 c0 -27 3 -30 30 -30 27 0 30 3 30 30 0 27 -3 30 -30 30
-27 0 -30 -3 -30 -30z"/>
<path d="M8010 950 l0 -40 40 0 40 0 0 40 0 40 -40 0 -40 0 0 -40z"/>
<path d="M3105 710 c-4 -6 12 -10 44 -10 65 0 75 16 11 19 -26 1 -51 -3 -55
-9z"/>
<path d="M3333 703 c9 -2 25 -2 35 0 9 3 1 5 -18 5 -19 0 -27 -2 -17 -5z"/>
<path d="M3420 650 c0 -27 3 -30 30 -30 27 0 30 3 30 30 0 27 -3 30 -30 30
-27 0 -30 -3 -30 -30z"/>
<path d="M2593 250 c0 -25 2 -35 4 -22 2 12 2 32 0 45 -2 12 -4 2 -4 -23z"/>
<path d="M2610 250 l0 -40 40 0 40 0 0 40 0 40 -40 0 -40 0 0 -40z"/>
<path d="M328 3093 c12 -2 32 -2 45 0 12 2 2 4 -23 4 -25 0 -35 -2 -22 -4z"/>
</g>
</svg>
